<svg width="2221" height="2048" viewBox="0 0 2221 2048" fill="none" xmlns="http://www.w3.org/2000/svg">
<path d="M380.126 213.76V1004.96L9.6724 1123.93L121.872 1956.73L1126.41 1738.06V2048L2112.52 1605.04L2220.32 863.887H1950.81L2025.4 0L380.126 213.76Z" fill="#52E695"/>
<path d="M874.825 408.306C881.49 456.695 882.479 503.16 877.793 547.7C873.615 591.569 865.451 632.681 853.299 671.034C841.067 708.797 825.396 743.426 806.288 774.92C787.689 805.743 767.382 832.893 745.366 856.369C723.269 879.256 700.267 897.757 676.361 911.874C652.373 925.4 628.875 933.747 605.866 936.917C586.396 939.598 568.209 938.495 551.304 933.608C534.318 928.131 518.95 919.123 505.2 906.586C491.368 893.459 479.368 876.17 469.199 854.721C459.54 832.601 452.515 805.608 448.126 773.742C443.575 740.696 442.909 705.311 446.13 667.587C449.35 629.862 455.561 592.027 464.763 554.08C473.964 516.133 486.654 479.509 502.833 444.209C519.012 408.909 537.785 377.16 559.15 348.963C580.435 320.175 604.22 296.455 630.508 277.801C656.795 259.148 685.278 247.709 715.957 243.483C742.506 239.826 765.108 242.426 783.761 251.281C802.924 259.465 818.444 271.759 830.322 288.162C842.709 303.894 852.471 322.392 859.608 343.657C866.746 364.922 871.818 386.472 874.825 408.306ZM576.818 732.566C577.712 739.057 579.826 745.681 583.162 752.437C586.497 759.193 590.595 764.943 595.457 769.685C600.318 774.427 605.983 778.457 612.452 781.775C619.429 784.422 626.458 785.258 633.538 784.283C660.087 780.626 682.426 768.229 700.556 747.091C718.686 725.954 732.707 701.173 742.619 672.749C752.531 644.325 758.954 614.578 761.889 583.507C765.413 552.355 765.469 524.387 762.055 499.603C761.08 492.521 759.433 484.931 757.115 476.832C755.387 468.652 752.561 461.224 748.635 454.549C745.3 447.793 740.357 442.461 733.807 438.552C727.766 433.973 720.025 432.333 710.586 433.633C691.706 436.234 674.952 443.352 660.323 454.988C645.694 466.623 632.987 481.302 622.202 499.022C611.925 516.072 603.449 535.278 596.773 556.642C590.015 577.416 584.519 598.617 580.284 620.246C576.558 641.204 574.561 661.622 574.293 681.502C574.025 701.382 574.867 718.403 576.818 732.566Z" fill="white"/>
<path d="M863.376 921.029C870.103 838.926 876.189 758.716 881.633 680.398C883.734 647.638 885.886 613.068 888.089 576.686C890.292 540.305 892.281 504.554 894.057 469.433C895.833 434.313 897.476 400.414 898.987 367.735C900.497 335.057 901.489 305.156 901.961 278.032C918.339 270.365 934.544 263.623 950.576 257.807C966.527 251.401 982.853 245.544 999.557 240.237C1016.85 234.849 1033.17 231.098 1048.51 228.985C1075.05 225.329 1097.79 226.707 1116.71 233.121C1136.22 239.453 1152.63 249.519 1165.95 263.318C1179.2 276.527 1189.56 292.838 1197.04 312.251C1204.53 331.665 1209.85 352.879 1213.02 375.893C1217.57 408.939 1215.77 441.658 1207.6 474.05C1200.03 506.361 1187.59 536.036 1170.27 563.075C1153.46 589.442 1132.76 611.535 1108.16 629.354C1084.15 647.093 1057.99 657.912 1029.67 661.812L1019.93 663.153C1017.98 683.867 1016.56 706.31 1015.68 730.484C1014.8 754.657 1014.27 776.978 1014.08 797.448C1013.2 821.621 1012.62 845.754 1012.33 869.846L863.376 921.029ZM1034.94 339.991C1033.81 379.832 1032.4 417.607 1030.71 453.317C1029.01 489.028 1027.06 527.18 1024.83 567.773C1033.95 564.113 1042.95 557.461 1051.84 547.818C1061.24 537.504 1069.43 524.951 1076.41 510.159C1083.31 494.778 1088.16 477.575 1090.95 458.55C1093.74 439.525 1093.75 419.981 1090.99 399.917C1087.98 378.083 1080.69 362.251 1069.11 352.42C1058.13 342.509 1046.74 338.365 1034.94 339.991Z" fill="white"/>
<path d="M1206.4 897.454L1235.65 252.136L1512.01 189.718C1509.66 203.27 1507.95 217.035 1506.87 231.013C1505.47 242.632 1504.14 254.84 1502.9 267.639C1502.16 279.766 1501.56 290.672 1501.09 300.358C1495.27 301.761 1486.8 303.529 1475.67 305.663C1465.05 307.126 1453.59 309.006 1441.28 311.302C1428.89 313.009 1416.21 314.756 1403.23 316.544C1390.84 318.25 1379.92 319.753 1370.48 321.054L1361.33 483.764C1379.46 480.065 1396.45 476.823 1412.3 474.039C1425.19 471.661 1438.43 469.537 1452 467.668C1465.57 465.799 1475.56 464.123 1481.96 462.639C1481.88 479.487 1481.76 496.04 1481.59 512.298C1482.01 528.475 1481.89 545.028 1481.22 561.957C1475.4 563.36 1465.74 565.291 1452.26 567.75C1439.28 569.537 1426.04 571.661 1412.55 574.12C1397.3 576.823 1380.56 579.729 1362.35 582.838L1354.7 749.852L1481.1 711.697L1486.15 813.825L1206.4 897.454Z" fill="white"/>
<path d="M1504.7 883.647C1509.76 798.167 1514.51 714.833 1518.96 633.645C1520.31 599.787 1521.75 564.412 1523.28 527.522C1525.32 489.96 1526.89 453.364 1528 417.735C1529.02 381.516 1529.66 346.854 1529.91 313.748C1530.66 279.97 1530.65 249.306 1529.86 221.755C1547.99 218.055 1565.52 214.437 1582.47 210.9C1597.65 207.607 1613.16 204.569 1629.01 201.785C1644.77 198.41 1658.77 195.28 1671 192.393C1684.93 236.775 1697.69 279.213 1709.28 319.708C1714.66 337.005 1720.17 355.188 1725.81 374.255C1731.95 392.651 1737.71 410.497 1743.1 427.794C1748.49 445.091 1753.8 461.798 1759.02 477.914C1764.17 493.441 1769.07 507.197 1773.72 519.183C1774.38 506.466 1775.08 491.938 1775.84 475.599C1776.51 458.669 1777.4 441.109 1778.5 422.918C1779.52 404.137 1780.5 385.061 1781.44 365.69C1782.97 346.238 1784.28 327.416 1785.38 309.226C1788.54 266.699 1791.75 222.362 1795.02 176.213L1901.16 148.065C1893.29 239.344 1887.13 325.577 1882.68 406.765C1880.32 441.966 1877.99 477.463 1875.71 513.254C1874.01 548.964 1872.45 583.454 1871.02 616.722C1869.59 649.991 1868.72 680.777 1868.41 709.081C1868.02 736.795 1867.95 760.256 1868.19 779.465C1866.42 779.708 1859.54 782.159 1847.56 786.816C1836.08 790.801 1822.62 795.662 1807.18 801.396C1792.33 807.05 1777.22 813.039 1761.86 819.364C1747.01 825.017 1735.91 829.552 1728.57 832.969C1717.86 785.739 1707.17 740.91 1696.52 698.483C1692.23 680.433 1687.56 661.834 1682.52 642.685C1677.48 623.537 1672.56 605.274 1667.76 587.895C1663.55 570.436 1659.21 554.197 1654.74 539.18C1650.77 523.49 1647.18 510.457 1643.94 500.079C1643.64 510.944 1643.06 524.252 1642.23 540.001C1641.39 555.75 1640.72 572.679 1640.2 590.789C1639.61 608.308 1639.14 626.713 1638.79 646.003C1638.36 664.702 1637.6 683.148 1636.49 701.338C1634.6 744.293 1632.35 789.098 1629.76 835.755L1504.7 883.647Z" fill="white"/>
<path d="M532.058 1752.32L559.582 1050.83L860.667 980.782C858.205 995.527 856.431 1010.5 855.347 1025.7C853.893 1038.33 852.531 1051.61 851.262 1065.53C850.543 1078.71 849.96 1090.57 849.514 1101.1C843.176 1102.67 833.943 1104.66 821.816 1107.07C810.24 1108.74 797.746 1110.88 784.333 1113.47C770.827 1115.43 757 1117.43 742.851 1119.47C729.346 1121.43 717.448 1123.15 707.158 1124.64L698.28 1301.53C718.032 1297.36 736.543 1293.7 753.815 1290.55C767.871 1287.86 782.295 1285.45 797.087 1283.31C811.878 1281.17 822.765 1279.26 829.747 1277.6C829.769 1295.91 829.746 1313.9 829.676 1331.57C830.249 1349.14 830.225 1367.13 829.605 1385.53C823.266 1387.11 812.747 1389.28 798.048 1392.06C783.9 1394.11 769.476 1396.52 754.777 1399.3C738.148 1402.36 719.912 1405.66 700.068 1409.18L692.85 1590.73L855.347 1592.67L861.55 1703.61L532.058 1752.32Z" fill="white"/>
<path d="M1168.34 1416.21C1171.13 1443.64 1169.35 1469.51 1163.02 1493.81C1156.69 1518.12 1147.07 1540.73 1134.18 1561.65C1121.21 1581.89 1105.48 1600.4 1086.99 1617.15C1068.93 1633.18 1049.39 1647.34 1028.37 1659.62C1007.78 1671.18 986.23 1680.8 963.703 1688.5C941.62 1695.48 920.068 1700.04 899.047 1702.18C880.076 1704.11 862.183 1703.9 845.368 1701.56C858.068 1581.96 865.572 1462.21 867.881 1342.32C870.634 1221.71 872.551 1100.5 873.63 978.707C899.542 968.635 926.582 959.462 954.749 951.188C982.849 942.246 1012.28 936.21 1043.04 933.081C1055.86 931.777 1069.65 932.402 1084.42 934.956C1099.18 937.511 1113 943.541 1125.88 953.047C1138.77 962.554 1149.94 975.614 1159.4 992.228C1169.37 1008.79 1175.72 1030.45 1178.44 1057.22C1181.03 1082.64 1180.11 1106.74 1175.69 1129.5C1171.78 1152.2 1165.62 1173.11 1157.21 1192.22C1149.3 1211.28 1139.62 1228.15 1128.17 1242.83C1116.64 1256.85 1104.55 1267.88 1091.9 1275.93C1099.05 1279.93 1106.65 1285.92 1114.71 1293.89C1122.77 1301.86 1130.49 1311.55 1137.87 1322.97C1145.18 1333.72 1151.45 1346.94 1156.67 1362.63C1162.41 1378.27 1166.29 1396.13 1168.34 1416.21ZM981.601 1329.74C981.183 1346.01 980.596 1360.6 979.838 1373.52C979.525 1385.72 979.178 1397.59 978.797 1409.12C978.416 1420.65 977.847 1432.88 977.089 1445.8C976.776 1458 976.445 1472.57 976.095 1489.5C985.701 1487.18 996.486 1483.71 1008.45 1479.12C1020.42 1474.52 1031.7 1468.3 1042.3 1460.46C1052.83 1451.95 1061.36 1441.62 1067.89 1429.46C1074.36 1416.64 1076.74 1401.86 1075.04 1385.13C1073.81 1373.09 1070.23 1363.31 1064.29 1355.81C1058.85 1348.25 1052.02 1342.18 1043.79 1337.61C1036.06 1332.99 1027.74 1330.12 1018.82 1329C1009.83 1327.21 1001.49 1326.7 993.804 1327.48C991.24 1327.74 988.933 1327.98 986.882 1328.19C985.344 1328.34 983.584 1328.86 981.601 1329.74ZM991.502 1083.33C991.225 1090.8 990.828 1099.63 990.311 1109.82C990.307 1119.96 990.114 1130.8 989.733 1142.33C989.284 1153.19 988.578 1164.08 987.616 1174.99C987.167 1185.85 986.838 1195.35 986.63 1203.49C997.637 1199.66 1008.54 1194.83 1019.35 1189C1030.15 1183.17 1039.64 1177.14 1047.81 1170.9C1056.42 1163.94 1062.96 1156.85 1067.4 1149.64C1072.36 1142.37 1074.43 1134.73 1073.62 1126.7C1072.6 1116.66 1069.47 1108.86 1064.24 1103.31C1058.95 1097.09 1052.25 1092.36 1044.15 1089.13C1036.57 1085.85 1028.6 1083.95 1020.26 1083.45C1012.37 1082.22 1005.35 1081.92 999.193 1082.55L991.502 1083.33Z" fill="white"/>
<path d="M1141.34 1657.85C1157.29 1589.45 1172.54 1521.97 1187.09 1455.43C1193.33 1427.45 1199.57 1398.22 1205.81 1367.75C1212.04 1337.28 1217.94 1307.43 1223.48 1278.2C1229.72 1248.35 1234.92 1219.75 1239.08 1192.39C1243.93 1164.4 1248.09 1138.91 1251.55 1115.9C1235.61 1114.03 1219.32 1113.41 1202.69 1114.03C1186.74 1114.66 1170.8 1112.79 1154.86 1108.44C1155.55 1098.49 1155.9 1086.98 1155.9 1073.92C1155.9 1060.86 1156.25 1047.8 1156.94 1034.75C1157.63 1020.44 1158.33 1005.21 1159.02 989.039C1177.04 990.283 1195.06 991.216 1213.08 991.838C1231.11 992.459 1249.13 992.77 1267.15 992.77C1302.5 992.77 1336.46 992.149 1369.04 990.905C1402.31 989.039 1432.81 987.174 1460.54 985.308C1488.96 982.821 1516.68 980.022 1543.72 976.913L1532.28 1027.28C1528.81 1041.59 1525.35 1056.2 1521.88 1071.12C1519.11 1086.05 1516.34 1098.8 1513.56 1109.37C1498.31 1113.1 1482.72 1115.9 1466.78 1117.76C1451.53 1119.01 1385.98 1120.87 1370.73 1123.36C1365.88 1144.5 1360.68 1168.14 1355.14 1194.25C1349.59 1219.75 1344.05 1246.49 1338.5 1274.47C1333.65 1301.84 1328.8 1329.82 1323.94 1358.42C1319.09 1387.03 1314.24 1414.39 1309.39 1440.51C1298.3 1502.07 1287.9 1565.81 1278.2 1631.73L1141.34 1657.85Z" fill="white"/>
<path d="M1742.97 1103.88C1742.97 1149.17 1738.43 1191.96 1729.34 1232.27C1720.76 1272.03 1709.16 1308.76 1694.52 1342.44C1679.89 1375.58 1662.73 1405.4 1643.05 1431.9C1623.87 1457.86 1603.68 1480.22 1582.49 1499C1561.29 1517.22 1539.85 1531.3 1518.15 1541.24C1496.45 1550.63 1475.76 1555.32 1456.08 1555.32C1439.42 1555.32 1424.28 1552.01 1410.66 1545.38C1397.03 1538.2 1385.17 1527.99 1375.08 1514.73C1364.99 1500.93 1356.91 1483.53 1350.86 1462.55C1345.31 1441.01 1342.53 1415.34 1342.53 1385.52C1342.53 1354.59 1346.06 1322.01 1353.13 1287.77C1360.19 1253.54 1369.78 1219.57 1381.89 1185.89C1394 1152.2 1408.89 1120.17 1426.55 1089.8C1444.22 1059.43 1463.65 1032.65 1484.84 1009.45C1506.04 985.709 1528.74 966.933 1552.97 953.128C1577.19 939.323 1602.42 932.42 1628.66 932.42C1651.37 932.42 1670.05 937.666 1684.68 948.158C1699.82 958.098 1711.43 971.351 1719.5 987.918C1728.08 1003.93 1734.14 1022.16 1737.67 1042.59C1741.2 1063.02 1742.97 1083.45 1742.97 1103.88ZM1455.32 1363.98C1455.32 1370.05 1456.33 1376.4 1458.35 1383.03C1460.36 1389.66 1463.14 1395.46 1466.67 1400.43C1470.21 1405.4 1474.5 1409.81 1479.54 1413.68C1485.09 1416.99 1490.9 1418.65 1496.95 1418.65C1519.66 1418.65 1539.85 1410.09 1557.51 1392.97C1575.17 1375.85 1589.81 1354.87 1601.41 1330.02C1613.02 1305.17 1621.85 1278.66 1627.91 1250.5C1634.47 1222.33 1637.75 1196.66 1637.75 1173.46C1637.75 1166.84 1637.24 1159.66 1636.23 1151.93C1635.73 1144.2 1634.22 1137.02 1631.69 1130.39C1629.67 1123.76 1626.14 1118.24 1621.1 1113.82C1616.55 1108.85 1610.25 1106.37 1602.17 1106.37C1586.02 1106.37 1571.13 1110.79 1557.51 1119.62C1543.88 1128.46 1531.52 1140.33 1520.42 1155.24C1509.82 1169.6 1500.48 1186.16 1492.41 1204.94C1484.34 1223.16 1477.27 1241.94 1471.21 1261.27C1465.66 1280.04 1461.63 1298.54 1459.1 1316.76C1456.58 1334.99 1455.32 1350.73 1455.32 1363.98Z" fill="white"/>
<path d="M1955.76 1067.67C1955.76 1103.39 1952.43 1137.15 1945.76 1168.95C1939.46 1200.31 1930.93 1229.28 1920.19 1255.85C1909.44 1281.99 1896.84 1305.51 1882.39 1326.42C1868.31 1346.89 1853.49 1364.54 1837.92 1379.35C1822.36 1393.72 1806.61 1404.83 1790.67 1412.67C1774.74 1420.08 1759.55 1423.78 1745.1 1423.78C1732.87 1423.78 1721.75 1421.16 1711.75 1415.94C1701.74 1410.27 1693.03 1402.22 1685.62 1391.76C1678.21 1380.87 1672.28 1367.15 1667.83 1350.6C1663.76 1333.61 1661.72 1313.35 1661.72 1289.83C1661.72 1265.44 1664.31 1239.74 1669.5 1212.73C1674.69 1185.72 1681.73 1158.93 1690.62 1132.36C1699.52 1105.79 1710.45 1080.52 1723.42 1056.57C1736.39 1032.61 1750.65 1011.48 1766.22 993.186C1781.78 974.455 1798.46 959.645 1816.24 948.755C1834.03 937.865 1852.56 932.42 1871.83 932.42C1888.5 932.42 1902.21 936.558 1912.96 944.834C1924.08 952.675 1932.6 963.13 1938.53 976.198C1944.83 988.83 1949.28 1003.21 1951.87 1019.32C1954.46 1035.44 1955.76 1051.56 1955.76 1067.67ZM1744.54 1272.84C1744.54 1277.63 1745.28 1282.64 1746.76 1287.87C1748.25 1293.1 1750.28 1297.67 1752.88 1301.59C1755.47 1305.51 1758.62 1309 1762.33 1312.05C1766.4 1314.66 1770.66 1315.97 1775.11 1315.97C1791.79 1315.97 1806.61 1309.21 1819.58 1295.71C1832.55 1282.21 1843.29 1265.65 1851.82 1246.05C1860.34 1226.45 1866.83 1205.54 1871.27 1183.33C1876.09 1161.11 1878.5 1140.85 1878.5 1122.56C1878.5 1117.33 1878.13 1111.67 1877.39 1105.57C1877.02 1099.47 1875.9 1093.81 1874.05 1088.58C1872.57 1083.36 1869.98 1079 1866.27 1075.51C1862.93 1071.59 1858.3 1069.63 1852.37 1069.63C1840.52 1069.63 1829.58 1073.12 1819.58 1080.09C1809.57 1087.06 1800.49 1096.42 1792.34 1108.18C1784.56 1119.51 1777.71 1132.58 1771.78 1147.39C1765.85 1161.76 1760.66 1176.57 1756.21 1191.82C1752.14 1206.63 1749.17 1221.22 1747.32 1235.6C1745.47 1249.97 1744.54 1262.39 1744.54 1272.84Z" fill="white"/>
<path d="M1911.27 1338.66C1919.44 1286.16 1927.33 1234.95 1934.92 1185.06C1937.84 1164.2 1940.91 1142.42 1944.12 1119.7C1947.63 1096.62 1950.84 1074.09 1953.76 1052.12C1956.68 1029.77 1959.31 1008.36 1961.64 987.882C1964.27 967.029 1966.32 948.038 1967.78 930.908C1976.83 930.163 1985.59 929.419 1994.06 928.674C2001.65 927.929 2009.39 927.371 2017.28 926.998C2025.16 926.253 2032.17 925.509 2038.31 924.764C2042.1 953.437 2045.46 980.807 2048.38 1006.87C2049.84 1018.04 2051.3 1029.77 2052.76 1042.06C2054.51 1053.98 2056.12 1065.52 2057.58 1076.69C2059.04 1087.87 2060.5 1098.66 2061.96 1109.09C2063.42 1119.14 2064.88 1128.08 2066.34 1135.9C2067.51 1128.08 2068.82 1119.14 2070.28 1109.09C2071.74 1098.66 2073.35 1087.87 2075.1 1076.69C2076.85 1065.15 2078.61 1053.42 2080.36 1041.5C2082.4 1029.59 2084.3 1018.04 2086.05 1006.87C2090.43 980.807 2094.96 953.623 2099.63 925.323L2153.08 916.944C2143.15 972.801 2134.39 1025.68 2126.79 1075.58C2123.29 1097.17 2119.78 1118.96 2116.28 1140.93C2113.07 1162.9 2110 1184.12 2107.08 1204.61C2104.16 1225.09 2101.68 1244.08 2099.63 1261.58C2097.59 1278.71 2095.98 1293.23 2094.82 1305.15C2093.94 1305.15 2090.43 1306.08 2084.3 1307.94C2078.46 1309.43 2071.6 1311.29 2063.71 1313.53C2056.12 1315.76 2048.38 1318.18 2040.5 1320.79C2032.9 1323.02 2027.21 1324.88 2023.41 1326.37C2021.37 1296.21 2019.18 1267.54 2016.84 1240.35C2015.96 1228.81 2014.94 1216.89 2013.77 1204.61C2012.61 1192.32 2011.44 1180.59 2010.27 1169.42C2009.39 1158.24 2008.37 1147.82 2007.2 1138.14C2006.33 1128.08 2005.45 1119.7 2004.57 1113C2003.7 1119.7 2002.53 1127.9 2001.07 1137.58C1999.61 1147.26 1998.15 1157.69 1996.69 1168.86C1995.23 1179.66 1993.77 1191.01 1992.31 1202.93C1990.85 1214.47 1989.24 1225.83 1987.49 1237C1983.69 1263.44 1979.6 1291 1975.22 1319.67L1911.27 1338.66Z" fill="white"/>
<path d="M142.314 1887.77L143.574 1901.95L156.749 1896.56L320.573 1829.54L326.822 1826.98L327.089 1820.24L340.247 1487.88L365.057 1827.51L366.101 1841.81L379.413 1836.51L557.803 1765.48L564.373 1762.86L564.419 1755.79C564.918 1678.69 566.374 1487.6 568.781 1414.27C570.074 1383.19 571.13 1351.03 571.952 1317.79C573.315 1284.54 575.009 1251.5 577.034 1218.68C579.062 1185.79 581.169 1154.61 583.356 1125.11L583.358 1125.09L583.36 1125.06C584.896 1102.77 586.734 1089.75 588.953 1074.04C589.686 1068.85 590.46 1063.37 591.278 1057.17L593.726 1038.6L576.609 1046.2C571.61 1048.42 566.014 1049.6 558.629 1051.02C558.284 1051.09 557.936 1051.15 557.584 1051.22C550.691 1052.55 542.558 1054.11 533.902 1057.18C526.616 1059.76 519.359 1061.07 511.308 1062.5L510.868 1062.57C503.196 1063.93 494.666 1065.44 486.172 1068.53C478.829 1071.06 471.451 1073.31 463.82 1075.64C462.596 1076.01 461.366 1076.39 460.128 1076.77C451.228 1079.49 442.028 1082.37 432.714 1085.86L425.935 1088.4L425.897 1095.64L424.207 1418.17C423.725 1414.64 423.224 1411.03 422.704 1407.32C420.065 1384.53 417.192 1360.66 414.085 1335.71L414.084 1335.7L414.083 1335.69C410.854 1310.16 407.567 1284.36 404.221 1258.29L404.22 1258.28L404.219 1258.27C400.763 1231.72 397.838 1207.63 395.443 1186L395.442 1185.99L395.44 1185.97C392.922 1163.75 390.556 1144.84 388.344 1129.26C386.69 1113.66 385.959 1103.95 385.988 1099.52L386.094 1083.02L371.102 1089.91C361.96 1094.11 353.039 1097.99 344.339 1101.54C335.979 1104.46 326.808 1107.56 316.822 1110.84L316.793 1110.85L316.764 1110.86C307.536 1113.95 298.198 1116.52 288.75 1118.56L281.379 1120.15L273.371 1121.88L273.102 1130.07C272.733 1141.29 271.81 1155.24 270.318 1171.98L270.303 1172.15L270.294 1172.31C269.341 1188.98 268.137 1207.13 266.68 1226.78L266.669 1226.92L266.663 1227.06C265.754 1246.52 264.477 1266.93 262.831 1288.28L262.824 1288.37L262.818 1288.47C261.596 1309.19 259.816 1336.61 257.477 1370.71C256.191 1388.27 254.781 1408.5 253.246 1431.4C251.233 1396.06 249.575 1366.41 248.272 1342.42C246.707 1303.45 245.266 1272.93 243.949 1250.9L243.948 1250.88L243.947 1250.86C242.519 1228.4 241.348 1208.46 240.434 1191.04L240.433 1191.01L240.431 1190.99C239.397 1172.98 238.581 1158.63 237.985 1147.93L237.982 1147.89L237.98 1147.85C237.622 1142.22 237.337 1137.91 237.127 1134.93C237.022 1133.44 236.933 1132.25 236.861 1131.38C236.858 1131.35 236.855 1131.31 236.851 1131.27C236.812 1130.77 236.712 1129.53 236.516 1128.62L234.131 1117.58L223.294 1120.76C200.891 1127.34 178.531 1135.35 156.215 1144.8C135.137 1153.25 112.098 1160.74 87.0812 1167.27L78.4867 1169.51L79.2729 1178.36L142.314 1887.77ZM215.849 1132.22C215.849 1132.22 215.853 1132.24 215.86 1132.31C215.852 1132.25 215.849 1132.22 215.849 1132.22Z" fill="white" stroke="#52E695" stroke-width="21"/>
<path d="M1959.5 1595.91C1959.11 1567.64 1958.65 1540.03 1958.12 1513.07C1957.56 1501.67 1957.12 1489.83 1956.79 1477.54C1956.42 1465.04 1955.89 1452.79 1955.2 1440.79C1954.67 1428.54 1954.04 1416.84 1953.33 1405.69C1952.77 1394.3 1952.03 1384.02 1951.1 1374.84C1961.89 1368.66 1973.81 1363.3 1986.88 1358.75C1999.9 1354.01 2013.01 1350.2 2026.22 1347.33C2034.15 1345.61 2040.86 1345.12 2046.34 1345.85C2052.02 1346.53 2056.66 1348.29 2060.26 1351.14C2064.01 1353.73 2066.99 1357.14 2069.18 1361.35C2071.37 1365.57 2073.06 1370.42 2074.26 1375.92C2076.03 1384.06 2076.35 1392.42 2075.23 1400.97C2074.06 1409.33 2071.81 1417.6 2068.48 1425.78C2065.31 1433.72 2061.21 1441.33 2056.19 1448.6C2051.33 1455.62 2045.74 1461.74 2039.42 1466.95C2044.85 1474.3 2050.66 1482.42 2056.85 1491.31C2063.19 1499.95 2069.15 1508.25 2074.71 1516.22C2080.98 1525.51 2087.36 1534.79 2093.84 1544.04L2050.16 1570.79C2043.04 1557.63 2036.51 1545.19 2030.56 1533.48C2028.03 1528.69 2025.48 1523.81 2022.91 1518.83C2020.29 1513.64 2017.87 1508.84 2015.63 1504.42C2013.35 1499.8 2011.4 1495.74 2009.8 1492.25C2008.19 1488.76 2007.06 1486.02 2006.41 1484.03L2002.72 1486.11C2002.91 1492.89 2003.11 1501.17 2003.31 1510.93C2003.72 1520.65 2004.16 1530.04 2004.64 1539.1C2005.07 1549.88 2005.56 1560.97 2006.12 1572.36L1959.5 1595.91ZM2002.38 1447.81C2006.16 1446.56 2010.48 1443.92 2015.35 1439.88C2020.42 1435.79 2025.08 1431.26 2029.32 1426.29C2033.52 1421.12 2036.98 1415.99 2039.71 1410.92C2042.44 1405.85 2043.45 1401.69 2042.75 1398.43C2042.26 1396.19 2041.17 1394.62 2039.48 1393.7C2037.75 1392.59 2035.5 1392.01 2032.72 1391.97C2030.11 1391.69 2027.25 1391.78 2024.16 1392.23C2021.07 1392.69 2017.89 1393.27 2014.64 1393.98C2012.4 1394.47 2010.09 1395.08 2007.69 1395.81C2005.46 1396.29 2003.42 1396.74 2001.6 1397.13L2002.38 1447.81Z" fill="white"/>
<path d="M1827.7 1672.4L1820.5 1446.59L1915.06 1417.42C1914.61 1422.21 1914.39 1427.06 1914.39 1431.96C1914.21 1436.05 1914.08 1440.34 1913.99 1444.84C1914.06 1449.09 1914.15 1452.91 1914.25 1456.3C1912.26 1456.94 1909.35 1457.79 1905.54 1458.83C1901.88 1459.62 1897.93 1460.58 1893.71 1461.72C1889.44 1462.64 1885.07 1463.59 1880.6 1464.56C1876.33 1465.49 1872.57 1466.31 1869.32 1467.01L1870.51 1524C1876.73 1522.22 1882.56 1520.64 1888 1519.24C1892.43 1518.07 1896.98 1516.97 1901.66 1515.96C1906.33 1514.94 1909.76 1514.09 1911.96 1513.4C1912.38 1519.28 1912.78 1525.05 1913.16 1530.73C1913.75 1536.36 1914.15 1542.13 1914.37 1548.05C1912.38 1548.7 1909.07 1549.63 1904.44 1550.85C1899.97 1551.82 1895.42 1552.91 1890.79 1554.13C1885.55 1555.48 1879.8 1556.95 1873.54 1558.52L1875.37 1616.96L1918.37 1600.27L1922.88 1635.75L1827.7 1672.4Z" fill="white"/>
<path d="M1791.53 1552.56C1793.83 1563.15 1794.76 1574.78 1794.32 1587.46C1793.83 1599.93 1792.13 1612.66 1789.21 1625.66C1786.24 1638.46 1781.86 1651.14 1776.07 1663.69C1770.44 1676 1763.43 1687.33 1755.03 1697.68C1746.59 1707.83 1736.81 1716.67 1725.67 1724.21C1714.74 1731.7 1702.46 1736.92 1688.84 1739.88C1686 1740.5 1683.11 1740.91 1680.17 1741.12C1677.28 1741.54 1674.37 1741.85 1671.44 1742.06C1670.82 1712.77 1670.26 1684.22 1669.76 1656.4C1669.36 1644.76 1668.97 1632.69 1668.6 1620.19C1668.19 1607.49 1667.71 1595.01 1667.18 1582.76C1666.65 1570.51 1666.13 1558.79 1665.61 1547.6C1665.3 1536.37 1664.81 1526.25 1664.13 1517.23C1672.51 1513.7 1681.03 1510.25 1689.66 1506.89C1698.3 1503.52 1707.29 1500.82 1716.64 1498.79C1727.62 1496.41 1737.24 1496.13 1745.51 1497.96C1753.99 1499.74 1761.23 1503.18 1767.23 1508.27C1773.43 1513.32 1778.54 1519.68 1782.54 1527.33C1786.55 1534.99 1789.54 1543.4 1791.53 1552.56ZM1714.4 1544.37C1714.77 1556.87 1714.93 1568.88 1714.88 1580.4C1714.83 1591.92 1714.8 1603.55 1714.79 1615.28C1714.78 1627.01 1714.89 1639.24 1715.1 1651.99C1715.31 1664.73 1715.87 1678.58 1716.77 1693.52C1720.94 1689.2 1724.67 1683.81 1727.95 1677.34C1731.38 1670.63 1734.34 1663.16 1736.81 1654.95C1739.29 1646.74 1741.27 1638.21 1742.75 1629.35C1744.44 1620.46 1745.66 1611.88 1746.42 1603.61C1747.18 1595.35 1747.44 1587.72 1747.2 1580.74C1747.17 1573.71 1746.62 1567.75 1745.56 1562.87C1743.92 1555.33 1740.51 1549.89 1735.31 1546.54C1730.31 1543.15 1723.35 1542.43 1714.4 1544.37Z" fill="white"/>
<path d="M1619.22 1781.87C1614.31 1783.79 1608.92 1785.92 1603.04 1788.26C1597.17 1790.61 1591.88 1792.71 1587.17 1794.59C1586.53 1787.69 1585.9 1780.9 1585.3 1774.21C1584.68 1768.37 1583.95 1762.56 1583.11 1756.77C1582.49 1750.94 1581.93 1745.94 1581.46 1741.78L1554.93 1747.54L1552.28 1794.17C1547.94 1795.75 1542.81 1797.61 1536.89 1799.75C1530.92 1801.68 1525.36 1803.53 1520.21 1805.29C1513.88 1807.52 1507.66 1809.72 1501.53 1811.9C1503.78 1783.06 1506.02 1754.64 1508.25 1726.66C1509.11 1714.96 1509.97 1702.72 1510.82 1689.96C1511.87 1677.15 1512.84 1664.47 1513.73 1651.91C1514.78 1639.11 1515.74 1626.85 1516.61 1615.15C1517.47 1603.45 1518.13 1592.75 1518.58 1583.06C1532.18 1579.04 1545.94 1574.78 1559.86 1570.26C1573.98 1565.7 1587.59 1560.72 1600.68 1555.32C1601.48 1561.97 1602.54 1570.27 1603.85 1580.22C1605.32 1589.92 1606.98 1600.54 1608.85 1612.07C1610.72 1623.61 1612.69 1635.65 1614.78 1648.2C1616.87 1660.75 1618.91 1673.1 1620.91 1685.25C1625.99 1713.57 1631.35 1743.64 1636.98 1775.46C1631.1 1777.8 1625.18 1779.94 1619.22 1781.87ZM1555.62 1715.41C1556.43 1715.24 1557.85 1714.93 1559.88 1714.49C1562.08 1713.8 1564.29 1713.21 1566.53 1712.72C1568.92 1711.99 1571.14 1711.4 1573.17 1710.96C1575.16 1710.32 1576.54 1709.81 1577.3 1709.42C1577.04 1708.2 1576.7 1706.15 1576.28 1703.25C1576.03 1700.11 1575.6 1696.68 1575.01 1692.97C1574.58 1689.02 1574.08 1684.75 1573.51 1680.19C1572.94 1675.62 1572.4 1671.15 1571.88 1666.79C1570.44 1656.23 1569.02 1644.81 1567.63 1632.53L1563.69 1605.57L1559.19 1606.87L1557.88 1634.65L1555.62 1715.41Z" fill="white"/>
<path d="M1366.32 1887.68L1359.12 1661.87L1453.68 1632.7C1453.23 1637.49 1453 1642.34 1453 1647.24C1452.83 1651.33 1452.7 1655.62 1452.61 1660.12C1452.68 1664.37 1452.76 1668.19 1452.86 1671.58C1450.87 1672.22 1447.97 1673.06 1444.15 1674.11C1440.49 1674.9 1436.55 1675.86 1432.32 1676.99C1428.06 1677.92 1423.69 1678.87 1419.21 1679.84C1414.94 1680.77 1411.18 1681.58 1407.93 1682.29L1409.13 1739.27C1415.34 1737.5 1421.17 1735.91 1426.61 1734.52C1431.04 1733.34 1435.59 1732.25 1440.27 1731.23C1444.94 1730.22 1448.38 1729.37 1450.57 1728.68C1451 1734.55 1451.4 1740.33 1451.78 1746C1452.36 1751.63 1452.76 1757.41 1452.99 1763.33C1451 1763.98 1447.69 1764.91 1443.06 1766.13C1438.58 1767.1 1434.03 1768.19 1429.4 1769.41C1424.16 1770.76 1418.41 1772.22 1412.15 1773.8L1413.99 1832.24L1456.98 1815.55L1461.49 1851.03L1366.32 1887.68Z" fill="white"/>
<path d="M1189.88 1961.53C1189.49 1933.26 1189.03 1905.64 1188.49 1878.68C1187.94 1867.29 1187.49 1855.45 1187.17 1843.15C1186.79 1830.65 1186.26 1818.4 1185.57 1806.4C1185.04 1794.15 1184.42 1782.45 1183.7 1771.31C1183.15 1759.92 1182.4 1749.63 1181.47 1740.45C1192.27 1734.27 1204.19 1728.91 1217.25 1724.37C1230.27 1719.62 1243.39 1715.82 1256.6 1712.95C1264.53 1711.23 1271.23 1710.73 1276.71 1711.46C1282.4 1712.15 1287.04 1713.91 1290.63 1716.75C1294.39 1719.35 1297.36 1722.75 1299.56 1726.97C1301.75 1731.18 1303.44 1736.04 1304.64 1741.54C1306.4 1749.68 1306.73 1758.03 1305.6 1766.59C1304.44 1774.95 1302.19 1783.22 1298.86 1791.4C1295.68 1799.34 1291.59 1806.94 1286.57 1814.22C1281.71 1821.24 1276.12 1827.36 1269.8 1832.57C1275.23 1839.92 1281.03 1848.04 1287.22 1856.93C1293.57 1865.57 1299.52 1873.87 1305.08 1881.83C1311.36 1891.13 1317.73 1900.41 1324.21 1909.66L1280.53 1936.41C1273.41 1923.24 1266.88 1910.81 1260.93 1899.09C1258.41 1894.31 1255.86 1889.43 1253.28 1884.44C1250.67 1879.25 1248.24 1874.45 1246 1870.03C1243.72 1865.41 1241.78 1861.36 1240.17 1857.87C1238.56 1854.38 1237.43 1851.64 1236.79 1849.65L1233.09 1851.73C1233.29 1858.51 1233.48 1866.78 1233.69 1876.54C1234.1 1886.26 1234.54 1895.65 1235.02 1904.72C1235.44 1915.5 1235.93 1926.59 1236.49 1937.98L1189.88 1961.53ZM1232.76 1813.43C1236.53 1812.18 1240.85 1809.54 1245.72 1805.49C1250.8 1801.41 1255.45 1796.88 1259.7 1791.91C1263.89 1786.73 1267.36 1781.61 1270.09 1776.54C1272.82 1771.47 1273.83 1767.31 1273.12 1764.05C1272.64 1761.81 1271.55 1760.23 1269.86 1759.32C1268.13 1758.2 1265.88 1757.63 1263.1 1757.59C1260.48 1757.3 1257.63 1757.39 1254.54 1757.85C1251.44 1758.31 1248.27 1758.89 1245.02 1759.6C1242.78 1760.08 1240.47 1760.69 1238.07 1761.42C1235.83 1761.91 1233.8 1762.35 1231.97 1762.75L1232.76 1813.43Z" fill="white"/>
</svg>
